# xmcd
#
# Track frame offsets:
#  150
#  12041
#  25370
#  39871
#  56746
#  77759
#  95043
#  106855
#  124229
#  138791
#  152383
#  166471
#
# Disc length: 2433 seconds
#
# Revision: 0
# Processed by: cddbd v1.5.1PL2 Copyright (c) Steve Scherf et al.
# Submitted via: Collectorz.com Music Collector 6.9
#
DISCID=8b097f0c
DTITLE=desert mist - Rocking Country
DYEAR=1900
DGENRE=
TTITLE0=Hard Working Man
TTITLE1=Chattahoochee
TTITLE2=Trying To Get To New Orleans
TTITLE3=Hog Wild
TTITLE4=Ain't Going Down
TTITLE5=All You Ever Do Is Bring Me Down
TTITLE6=It's Only Make Believe
TTITLE7=Copperhead Road
TTITLE8=I Couldn't Leave You If I Tried
TTITLE9=Night I Called The Old Man Out
TTITLE10=I Don't Care If You Love Me Any More
TTITLE11=Mercury Blues
EXTD=
EXTT0=
EXTT1=
EXTT2=
EXTT3=
EXTT4=
EXTT5=
EXTT6=
EXTT7=
EXTT8=
EXTT9=
EXTT10=
EXTT11=
PLAYORDER=
